<svg width="12" height="12" viewBox="0 0 12 12" fill="none" xmlns="http://www.w3.org/2000/svg">
<path d="M11.2041 5.08808L6.91817 0.821384C6.50329 0.406503 5.82903 0.406503 5.41302 0.821384L1.12821 5.08808C0.927702 5.2897 0.814575 5.56058 0.814575 5.84434C0.814575 6.12809 0.926577 6.40009 1.12821 6.6006L5.41302 10.8673C5.62103 11.0742 5.89415 11.1777 6.16616 11.1777C6.43816 11.1777 6.71117 11.0742 6.91817 10.8673L11.2041 6.6006C11.4046 6.40009 11.5187 6.12809 11.5187 5.84434C11.5187 5.56058 11.4056 5.28858 11.2041 5.08808ZM6.16616 8.606L3.39274 5.84434L6.16616 3.08267L8.94058 5.84434L6.16616 8.606Z" fill="#2E2F42"/>
</svg>
